<svg width="113" height="32" viewBox="0 0 113 32" fill="none" xmlns="http://www.w3.org/2000/svg">
<g clip-path="url(#clip0_812_802)">
<path d="M5.94555 0.197722C3.65598 1.15686 1.13895 3.86311 0.344005 7.26245C-0.662767 11.5684 3.52681 13.3895 3.87044 12.7932C4.27488 12.0916 3.11974 11.8544 2.88193 9.62018C2.57464 6.73449 3.91619 3.51007 5.60475 2.09528C5.91844 1.83243 5.90356 2.19827 5.90356 2.87498C5.90356 4.0851 5.83672 14.9483 5.83672 17.2155C5.83672 20.2833 5.71 21.252 5.48236 22.2093C5.2519 23.1793 4.88116 23.8347 5.1619 24.0872C5.47577 24.3697 6.81581 23.6979 7.59156 22.6152C8.5217 21.3168 8.84724 19.7574 8.9058 18.0639C8.97641 16.0225 8.9734 12.7832 8.97641 10.9356C8.97904 9.24097 9.00484 4.27885 8.94666 1.29581C8.93235 0.564129 6.90318 -0.203518 5.94555 0.197722Z" fill="#A7AAB4"/>
<path d="M87.2481 14.5546C87.1743 16.1494 86.8213 17.3961 86.3831 18.2754C85.5349 19.9777 83.7748 20.5062 83.0275 18.0592C82.6202 16.7254 82.6012 14.4976 82.894 12.6362C83.192 10.7399 84.0243 9.30782 85.4023 9.43699C86.7616 9.56465 87.3978 11.3161 87.2481 14.5546ZM64.3332 24.4495C64.3147 27.0995 63.8977 29.4229 63.0033 30.0977C61.7348 31.0546 60.0299 30.3369 60.3829 28.4032C60.6953 26.692 62.1726 24.9445 64.3368 22.8093C64.3368 22.8093 64.3413 23.2962 64.3332 24.4495ZM63.9867 14.539C63.9092 15.9916 63.5326 17.4509 63.1218 18.2754C62.2737 19.9777 60.5008 20.5098 59.7661 18.0592C59.2638 16.3848 59.3841 14.2178 59.6326 12.8523C59.9551 11.0807 60.7369 9.43718 62.141 9.43718C63.5061 9.43718 64.1792 10.9348 63.9867 14.539ZM50.7123 14.517C50.6291 16.0553 50.329 17.3413 49.8473 18.2754C48.9759 19.966 47.252 20.5021 46.4917 18.0592C45.9436 16.2976 46.1302 13.8958 46.3582 12.5983C46.6965 10.6729 47.5438 9.30782 48.8665 9.43718C50.2252 9.56992 50.8857 11.3161 50.7123 14.517ZM111.546 16.3138C111.214 16.3138 111.062 16.6563 110.937 17.2325C110.502 19.2364 110.045 19.6887 109.455 19.6887C108.796 19.6887 108.205 18.6966 108.053 16.7103C107.933 15.1485 107.952 12.2733 108.105 9.41326C108.136 8.82562 107.974 8.24419 106.398 7.67161C105.72 7.42533 104.734 7.06269 104.243 8.24758C102.856 11.5951 102.314 14.2528 102.186 15.3323C102.179 15.3882 102.111 15.3997 102.099 15.269C102.017 14.4044 101.835 12.8329 101.813 9.5317C101.809 8.88757 101.672 8.33927 100.961 7.8904C100.5 7.59912 99.0989 7.08396 98.5945 7.69684C98.1575 8.19806 97.6514 9.54695 97.1255 11.1459C96.6981 12.4454 96.4004 13.3246 96.4004 13.3246C96.4004 13.3246 96.406 9.81808 96.4111 8.48802C96.4134 7.98623 96.0692 7.81904 95.9654 7.78872C95.4983 7.65334 94.578 7.42683 94.1873 7.42683C93.7052 7.42683 93.5872 7.69608 93.5872 8.08866C93.5872 8.14025 93.5111 12.7053 93.5111 15.8975C93.5111 16.0363 93.5113 16.1875 93.5119 16.3483C93.2453 17.8154 92.3806 19.8071 91.4403 19.8071C90.4989 19.8071 90.0547 18.9745 90.0547 15.1688C90.0547 12.9489 90.1214 11.9834 90.1542 10.3777C90.1732 9.4528 90.2099 8.74258 90.2078 8.58141C90.2008 8.08716 89.3462 7.83805 88.9485 7.74598C88.549 7.65334 88.2018 7.61719 87.9307 7.63263C87.5469 7.65447 87.2754 7.90602 87.2754 8.25228C87.2754 8.43812 87.2775 8.79097 87.2775 8.79097C86.7832 8.01429 85.9883 7.47372 85.4594 7.31706C84.0348 6.89398 82.5483 7.26905 81.427 8.83786C80.5359 10.0845 79.9987 11.4965 79.7872 13.5251C79.6327 15.0082 79.6831 16.5121 79.9578 17.7839C79.6259 19.2191 79.0096 19.8071 78.3348 19.8071C77.3551 19.8071 76.6449 18.2082 76.7274 15.4426C76.7818 13.6237 77.1458 12.3472 77.5436 10.5004C77.7133 9.71321 77.5754 9.30104 77.2297 8.90602C76.9127 8.54375 76.2371 8.35867 75.2659 8.58631C74.5741 8.74861 73.5851 8.92315 72.6802 9.05721C72.6802 9.05721 72.7348 8.83936 72.7796 8.45526C73.0149 6.44096 70.8261 6.6044 70.1277 7.24777C69.7109 7.63188 69.4271 8.0849 69.3194 8.89943C69.1486 10.192 70.2029 10.8017 70.2029 10.8017C69.857 12.3852 69.0091 14.4533 68.1338 15.9487C67.6649 16.7499 67.3063 17.3435 66.8433 17.9747C66.8416 17.7397 66.8402 17.5045 66.8395 17.2707C66.8289 13.9419 66.8732 11.3223 66.8928 10.3779C66.9118 9.45299 66.9489 8.7616 66.9468 8.60043C66.9415 8.2391 66.7305 8.10241 66.2914 7.92956C65.9031 7.77667 65.4441 7.67085 64.9679 7.63395C64.3669 7.58725 64.0048 7.90584 64.0142 8.28279C64.0161 8.35396 64.0161 8.79097 64.0161 8.79097C63.5219 8.01429 62.7269 7.47372 62.198 7.31706C60.7734 6.89417 59.2869 7.26905 58.1657 8.83786C57.2747 10.0845 56.6912 11.8339 56.5259 13.5096C56.3718 15.0715 56.4003 16.3985 56.6102 17.5168C56.3837 18.6363 55.7324 19.8071 54.996 19.8071C54.0546 19.8071 53.5189 18.9745 53.5189 15.1688C53.5189 12.9489 53.5856 11.9834 53.6183 10.3779C53.6374 9.45299 53.6741 8.74258 53.672 8.5816C53.665 8.08735 52.8104 7.83824 52.4127 7.74598C51.9966 7.64977 51.6374 7.61437 51.3615 7.63489C50.9976 7.66182 50.7417 7.98774 50.7417 8.23082V8.79097C50.2474 8.01429 49.4525 7.47372 48.9236 7.31706C47.499 6.89417 46.0208 7.27507 44.8912 8.83786C44.1546 9.85687 43.5583 10.9866 43.2514 13.4874C43.1627 14.2101 43.1236 14.887 43.1287 15.5194C42.8349 17.3159 41.5376 19.3861 40.4765 19.3861C39.8555 19.3861 39.2641 18.1816 39.2641 15.6147C39.2641 12.1954 39.4757 7.32723 39.5115 6.85802C39.5115 6.85802 40.8523 6.83523 41.1119 6.83222C41.7807 6.82488 42.3864 6.84069 43.2772 6.79513C43.724 6.77235 44.1545 5.16889 43.6933 4.97044C43.4843 4.88063 42.0072 4.80192 41.4217 4.78949C40.9293 4.77839 39.5586 4.6769 39.5586 4.6769C39.5586 4.6769 39.6815 1.44551 39.7101 1.10415C39.7344 0.819647 39.3663 0.673159 39.1552 0.584287C38.642 0.367192 38.1827 0.263258 37.6384 0.151039C36.8864 -0.00411001 36.5452 0.147649 36.4786 0.782366C36.3782 1.74564 36.3262 4.56713 36.3262 4.56713C35.7744 4.56713 33.8892 4.45924 33.3372 4.45924C32.8243 4.45924 32.2707 6.66502 32.9798 6.69214C33.7956 6.72377 35.2174 6.75126 36.16 6.7795C36.16 6.7795 36.118 11.7281 36.118 13.256C36.118 13.4185 36.1187 13.575 36.1197 13.7269C35.6009 16.4305 33.7738 17.8911 33.7738 17.8911C34.1662 16.1024 33.3647 14.7591 31.9209 13.622C31.389 13.2031 30.3389 12.4099 29.164 11.5405C29.164 11.5405 29.8444 10.87 30.4479 9.52059C30.8755 8.56465 30.894 7.47108 29.8444 7.22989C28.1103 6.83109 26.6805 8.10467 26.254 9.46429C25.9235 10.5178 26.0998 11.2991 26.7471 12.111C26.7944 12.1704 26.8456 12.231 26.8985 12.292C26.507 13.0465 25.9693 14.0623 25.5138 14.8501C24.2497 17.0372 23.2947 18.7672 22.573 18.7672C21.9961 18.7672 22.0038 17.0107 22.0038 15.3662C22.0038 13.9485 22.1085 11.8171 22.1921 9.6104C22.2197 8.8806 21.8548 8.46486 21.2431 8.08829C20.8714 7.85952 20.0782 7.4097 19.6188 7.4097C18.9311 7.4097 16.9471 7.50328 15.0726 12.9258C14.8363 13.6092 14.3721 14.8546 14.3721 14.8546L14.4122 8.33381C14.4122 8.18092 14.3307 8.03312 14.1443 7.93201C13.8284 7.76048 12.9846 7.4097 12.2345 7.4097C11.8771 7.4097 11.6986 7.57596 11.6986 7.90734L11.6333 18.1091C11.6333 18.8845 11.6534 19.7886 11.7301 20.184C11.8065 20.58 11.9302 20.9022 12.0833 21.0938C12.2364 21.2851 12.4134 21.4311 12.705 21.4913C12.9765 21.5472 14.4636 21.7382 14.5408 21.1699C14.6335 20.4889 14.637 19.7523 15.4179 17.0052C16.6335 12.7282 18.2181 10.6415 18.9633 9.90036C19.0936 9.77082 19.2424 9.7631 19.2352 9.97511C19.2034 10.9128 19.0915 13.256 19.0162 15.2464C18.8144 20.5734 19.7835 21.5608 21.1684 21.5608C22.2278 21.5608 23.7213 20.5081 25.3223 17.8433C26.3205 16.1826 27.2896 14.5543 27.9859 13.3807C28.4711 13.8299 29.0156 14.3132 29.5598 14.8297C30.8243 16.0299 31.2395 17.1703 30.964 18.2522C30.7533 19.0794 29.9599 19.9317 28.5477 19.1033C28.1361 18.8615 27.9604 18.6747 27.5466 18.4023C27.3242 18.256 26.9847 18.2121 26.7812 18.3656C26.2525 18.7642 25.9501 19.2712 25.7774 19.899C25.6095 20.5098 26.2212 20.8327 26.8554 21.1151C27.4014 21.3582 28.575 21.5785 29.3235 21.6035C32.2396 21.7011 34.5757 20.1955 36.202 16.3119C36.493 19.6661 37.732 21.5638 39.8845 21.5638C41.3236 21.5638 42.7664 19.7037 43.3974 17.8738C43.5785 18.6198 43.8466 19.2684 44.1929 19.8171C45.8515 22.445 49.0691 21.8794 50.6854 19.6478C51.1851 18.9583 51.2612 18.7105 51.2612 18.7105C51.4969 20.8176 53.1938 21.5538 54.1653 21.5538C55.2534 21.5538 56.3769 21.0394 57.1644 19.2667C57.2566 19.4591 57.3573 19.6429 57.4673 19.8171C59.1259 22.445 62.3436 21.8794 63.9598 19.6478C64.0361 19.5431 64.1022 19.4482 64.16 19.3629L64.2074 20.747C64.2074 20.747 63.2854 21.5928 62.7194 22.1117C60.2251 24.3977 58.3304 26.1317 58.1911 28.1509C58.0137 30.7255 60.1005 31.6824 61.6817 31.8078C63.3579 31.9409 64.7958 31.0141 65.6783 29.7172C66.455 28.5756 66.9634 26.1187 66.9261 23.692C66.9112 22.7203 66.8867 21.4847 66.8675 20.1603C67.7431 19.1436 68.7295 17.8583 69.6378 16.3543C70.6276 14.7151 71.6884 12.5136 72.2317 10.8004C72.2317 10.8004 73.1533 10.8083 74.1369 10.7439C74.4516 10.7234 74.5419 10.7876 74.4838 11.0182C74.4135 11.2969 73.2411 15.8192 74.3111 18.8318C75.0435 20.8941 76.6946 21.5576 77.6735 21.5576C78.8195 21.5576 79.9157 20.6922 80.5031 19.4072C80.5739 19.5505 80.6479 19.689 80.7287 19.8171C82.3873 22.445 85.5936 21.876 87.2212 19.6478C87.5885 19.1451 87.797 18.7105 87.797 18.7105C88.1463 20.8913 89.8422 21.5649 90.8135 21.5649C91.8254 21.5649 92.7856 21.1501 93.5648 19.3066C93.5974 20.1183 93.6486 20.782 93.7295 20.9912C93.7789 21.1193 94.0664 21.2799 94.2756 21.3575C95.2012 21.7007 96.1453 21.5384 96.4945 21.4678C96.7365 21.4188 96.9251 21.2247 96.9509 20.7235C97.0187 19.4074 96.9771 17.1961 97.3761 15.5526C98.0458 12.7945 98.6706 11.7247 98.9669 11.195C99.1328 10.8983 99.32 10.8493 99.3267 11.1634C99.3407 11.7989 99.3723 13.665 99.6318 16.1722C99.8223 18.0161 100.077 19.1061 100.273 19.451C100.831 20.4375 101.52 20.4842 102.082 20.4842C102.439 20.4842 103.186 20.3855 103.119 19.7578C103.086 19.4518 103.144 17.5608 103.804 14.8437C104.235 13.0692 104.954 11.4662 105.213 10.8798C105.309 10.6637 105.353 10.8341 105.352 10.8672C105.297 12.0892 105.175 16.0862 105.672 18.2722C106.347 21.2336 108.299 21.5649 108.98 21.5649C110.432 21.5649 111.62 20.4603 112.02 17.5535C112.116 16.854 111.973 16.3138 111.546 16.3138Z" fill="#A7AAB4"/>
</g>
<defs>
<clipPath id="clip0_812_802">
<rect width="112.219" height="32" fill="white"/>
</clipPath>
</defs>
</svg>
