<svg width="104" height="32" viewBox="0 0 104 32" fill="none" xmlns="http://www.w3.org/2000/svg">
<g clip-path="url(#clip0_812_795)">
<path d="M103.17 16.2687C102.625 15.9164 101.921 16.0445 101.536 16.589C101.472 16.685 100.063 18.7346 97.5972 18.7346C96.6365 18.7346 95.8999 18.4464 95.4195 17.8379C95.3875 17.8059 95.3555 17.7419 95.3234 17.7098C95.3234 17.7098 95.3555 17.7098 95.3555 17.6778C101.184 14.3472 101.12 11.497 100.864 10.4402C100.511 9.15915 99.3906 8.3265 97.9495 8.3265C94.6189 8.3265 92.4092 12.0414 92.4092 15.5001C92.4092 15.9485 92.4412 16.3648 92.5052 16.7811C91.3203 17.6458 89.4949 18.7346 87.8936 18.7346C86.9649 18.7346 86.2604 18.4464 85.812 17.902C85.6519 17.7098 85.5238 17.4857 85.4277 17.2615C89.8792 15.9805 91.5765 13.1303 91.2563 10.8565C91.0641 9.38333 89.9432 8.3265 88.5662 8.3265C85.4597 8.3265 83.218 11.5931 82.8657 14.7956C82.2572 14.7315 81.7448 14.5714 81.2645 14.2511C81.3285 13.7387 81.3926 13.2263 81.3926 12.746C81.3926 11.6891 81.2004 10.7924 80.8161 10.0879C80.3037 9.15915 79.439 8.64675 78.4463 8.64675C77.9018 8.64675 77.4215 8.93498 77.1332 9.44738C76.5568 10.5042 76.9411 12.5538 77.9979 14.1871C78.1901 14.5073 78.4142 14.7956 78.6704 15.0838C78.094 16.9412 76.877 18.7026 75.3398 18.7026C74.6353 18.7026 74.1229 18.4784 73.6745 18.0301C73.0661 17.3576 72.6497 16.1726 72.5216 14.6675C76.877 9.2232 79.0227 3.87503 77.8058 1.34505C77.3894 0.480375 76.6208 0 75.6921 0C72.6818 0 70.8884 3.90705 70.1838 11.9453C70.1518 12.4257 70.1198 13.0342 70.1198 13.6747C68.5185 15.8524 65.8604 18.7026 63.4906 18.7026C62.8181 18.7026 62.3057 18.4784 61.9854 17.9981C61.9534 17.966 61.9214 17.902 61.8893 17.87C61.9214 17.87 61.9534 17.8379 61.9854 17.8059C67.846 14.027 67.7499 11.1767 67.4617 10.1519C67.1414 9.03105 66.1166 8.29448 64.8036 8.29448C61.409 8.29448 59.1032 12.2015 59.1032 15.8524C59.1032 16.1726 59.1352 16.4929 59.1672 16.8131C58.0783 17.5817 57.2137 18.2863 56.349 18.9588C56.4771 17.966 56.6693 16.685 56.8934 14.7956C56.9575 14.4113 56.9895 14.091 57.0215 13.9309C57.2137 12.5538 54.9399 12.2656 54.6837 13.8028C54.4275 15.404 53.755 18.7026 51.8655 18.7026C50.7446 18.7026 50.1361 17.4536 50.2642 15.6282C50.4244 12.746 51.9936 10.4081 53.9151 10.4081C54.5876 10.4081 54.9079 11.1127 54.9079 11.1127C55.5163 12.2015 57.4058 11.2728 56.9895 10.1199C56.7974 9.6075 56.1889 8.29448 53.9791 8.29448C49.4956 8.29448 48.0865 12.842 47.8944 15.8524C47.8624 16.3328 47.8624 16.8131 47.9264 17.2935C47.2859 18.0621 46.5493 18.7026 45.8128 18.7026C45.1082 18.7026 44.6599 17.902 44.9161 16.0766C45.1723 14.3152 45.3644 12.8741 45.4605 12.0414C46.0049 8.23043 41.2332 8.3265 41.2332 8.3265C41.2332 8.3265 41.1691 6.08475 39.3437 6.08475C38.415 6.08475 37.5503 6.82133 37.5503 8.1984C37.5503 9.4794 38.6071 10.1199 38.6071 10.1199C38.383 12.1055 37.4542 18.7026 35.3726 18.7026C34.4439 18.7026 34.3798 17.7098 34.4759 17.0053C34.604 16.0445 34.7641 14.3792 34.8282 13.9629C35.0203 12.5858 32.7466 12.2976 32.4904 13.8348C32.2342 15.4361 31.5616 18.7346 29.6722 18.7346C28.5513 18.7346 27.9428 17.3255 28.0389 15.5962C28.199 12.6819 29.7682 10.4402 31.6897 10.4402C32.3623 10.4402 32.6825 11.1447 32.6825 11.1447C33.1949 12.2336 35.1484 11.465 34.7641 10.1519C34.604 9.57548 33.9635 8.3265 31.7538 8.3265C27.2703 8.3265 25.8612 12.8741 25.669 15.8844C25.637 16.3648 25.637 16.8131 25.669 17.2295C25.0285 18.0941 24.2599 18.7346 23.5234 18.7346C22.8508 18.7346 22.3384 18.3824 22.4665 16.8772C22.5306 16.1726 23.3312 11.3369 23.2992 10.4722C23.2031 8.99903 22.5306 8.35853 20.8973 8.35853C19.168 8.35853 17.887 9.25523 17.3425 9.79965C17.3425 9.79965 18.1432 3.7149 18.3033 2.52998C18.4634 1.31303 16.0936 1.281 15.9655 2.52998C15.9014 3.0744 15.2609 7.87815 14.6845 12.3617C13.3394 15.308 10.6813 19.7915 6.74225 19.7915C-0.71958 19.7915 2.7071 3.52275 9.72058 3.52275C11.3539 3.52275 10.6173 6.1488 9.52843 7.71803C8.75982 8.87093 10.7134 10.1519 11.8022 8.3265C14.8126 3.23453 12.2826 1.34505 9.8807 1.34505C-0.495405 1.34505 -4.33841 22.0332 6.45402 22.0332C10.0088 22.0332 12.4107 20.0477 13.9479 17.87C13.7878 19.0869 13.6917 19.9196 13.6597 20.0797C13.4675 21.3607 15.8694 21.2646 15.9975 20.1758C16.0936 19.5032 16.4458 16.653 16.7341 14.4433C16.8942 13.1943 18.4314 10.8885 20.1607 10.8885C20.5771 10.8885 20.8333 11.3048 20.8012 11.6571C20.7372 12.0734 20.0006 17.4857 20.0326 18.2863C20.1607 20.5601 21.794 21.0725 23.3312 21.0725C24.5482 21.0725 25.5409 20.496 26.3416 19.5993C26.886 20.496 27.7186 21.0725 28.8715 21.0725C31.4656 21.0725 32.3623 19.215 32.3623 19.215C32.3623 19.215 32.6825 21.0725 34.9243 21.0725C39.4718 21.0725 40.5286 13.1623 40.7528 10.5042C41.009 10.5042 42.6103 10.6003 42.8985 11.497C43.1547 12.3617 42.3541 15.1158 42.29 17.966C42.258 19.4712 42.8024 21.0725 45.1723 21.0725C46.6134 21.0725 47.7663 20.3999 48.5669 19.6634C49.1113 20.528 49.944 21.0725 51.0649 21.0725C52.3459 21.0725 53.2105 20.6561 53.755 20.2398C53.7229 20.496 53.6909 20.7202 53.6589 20.9764V21.0084C53.6589 20.9764 47.6702 25.2998 47.6702 29.3669C47.6702 30.9682 48.4068 31.993 50.2963 31.993C54.0432 31.993 55.2281 26.9651 55.7725 22.8338C55.8046 22.6417 55.8366 22.4495 55.8366 22.2894C56.4131 21.8411 56.9575 21.4247 57.5019 21.0084C58.2705 20.3999 59.0391 19.8235 59.9038 19.183C59.9358 19.247 59.9999 19.3111 60.0319 19.3751C60.8325 20.464 62.0174 21.0404 63.4586 21.0404C66.1807 21.0404 68.7107 18.9588 70.5041 16.9092C70.7923 17.902 71.2086 18.8627 71.9132 19.6313C72.7778 20.5601 73.9628 21.0725 75.3078 21.0725C77.9018 21.0725 79.6952 18.9908 80.656 16.589C81.3605 16.9092 82.1612 17.1014 82.9938 17.1654C83.186 17.9981 83.5062 18.7667 84.0186 19.3751C84.6591 20.1437 85.844 21.0725 87.9257 21.0725C90.0073 21.0725 92.0569 19.9516 93.434 19.0229C93.498 19.1189 93.5621 19.215 93.6261 19.3111C94.2666 20.1117 95.5156 21.0725 97.6292 21.0725C101.376 21.0725 103.458 17.9981 103.554 17.87C103.842 17.3576 103.682 16.621 103.17 16.2687ZM50.5845 29.7192C50.2322 29.7192 49.976 29.495 49.976 29.0467C49.976 26.9971 53.1465 24.2109 53.1785 24.2109C52.7942 26.9651 51.6733 29.7192 50.5845 29.7192ZM64.7395 10.5042C65.0278 10.5042 65.0918 10.7284 65.1559 10.8565C65.284 11.3048 64.8356 13.0022 61.409 15.372C61.6011 13.1303 62.9782 10.5042 64.7395 10.5042ZM75.6281 2.40188C76.6208 2.40188 75.8202 5.79653 72.6497 10.5362C73.3863 4.2273 74.4111 2.40188 75.6281 2.40188ZM88.31 10.5042C88.8224 10.5042 88.8544 11.0166 88.8864 11.2088C89.0145 12.1695 88.1178 13.8989 85.1715 14.8916C85.4918 12.81 86.8688 10.5042 88.31 10.5042ZM97.9175 10.5042C98.2697 10.5042 98.4619 10.7604 98.558 11.0807C98.7501 11.7532 97.8534 13.4505 94.715 15.372C94.779 13.1303 96.1241 10.5042 97.9175 10.5042Z" fill="#A7AAB4"/>
</g>
<defs>
<clipPath id="clip0_812_795">
<rect width="103.696" height="32" fill="white"/>
</clipPath>
</defs>
</svg>
