<svg width="144" height="32" viewBox="0 0 144 32" fill="none" xmlns="http://www.w3.org/2000/svg">
<g clip-path="url(#clip0_812_806)">
<path d="M16.173 0C25.1054 0 32.3459 7.16265 32.3459 15.999C32.3459 24.8353 25.1054 31.998 16.173 31.998C7.24054 31.998 0 24.8353 0 15.999C0 7.16265 7.24054 0 16.173 0ZM89.7791 8.76435C93.5813 8.76435 96.6558 12.0037 96.6558 15.999C96.6558 19.9942 93.5813 23.2336 89.7791 23.2336C88.0022 23.2336 86.3294 22.5297 85.0828 21.2895L84.9945 21.2V28.0567L84.9926 28.0944C84.9742 28.2808 84.8208 28.4326 84.6324 28.4508L84.5943 28.4526H82.1565L82.1184 28.4508C81.93 28.4326 81.7766 28.2808 81.7581 28.0944L81.7563 28.0567V9.52021L81.7581 9.4825C81.7766 9.29612 81.93 9.14436 82.1184 9.12612L82.1565 9.12428H84.5943L84.6324 9.12612C84.8208 9.14436 84.9742 9.29612 84.9926 9.4825L84.9945 9.52021V10.798C86.2498 9.50221 87.978 8.76435 89.7791 8.76435ZM12.207 8.40442C6.65839 13.8934 8.44123 23.6475 8.44123 23.6475C8.44123 23.6475 18.3197 25.3932 23.8501 19.9222C26.9246 16.8808 26.8155 11.8238 23.5954 8.65637C20.3754 5.48897 15.2815 5.36299 12.207 8.40442ZM102.077 3.54533L102.115 3.54717C102.304 3.56541 102.457 3.71717 102.475 3.90355L102.477 3.94126V10.798C103.733 9.50221 105.461 8.76435 107.262 8.76435C111.064 8.76435 114.139 12.0037 114.139 15.999C114.139 19.9942 111.064 23.2336 107.262 23.2336C105.485 23.2336 103.812 22.5297 102.566 21.2895L102.477 21.2V22.4778L102.475 22.5155C102.457 22.7019 102.304 22.8536 102.115 22.8719L102.077 22.8737H99.6393C99.4338 22.8737 99.2606 22.7143 99.2409 22.5155L99.2391 22.4778V3.94126C99.2391 3.738 99.4002 3.56663 99.6012 3.54717L99.6393 3.54533H102.077ZM123.107 8.76435C127.219 8.76435 130.548 12.0037 130.548 15.999C130.548 19.9942 127.219 23.2336 123.107 23.2336C118.996 23.2336 115.667 19.9942 115.667 15.999C115.667 12.0037 118.996 8.76435 123.107 8.76435ZM69.9858 8.76435C71.7628 8.76435 73.4356 9.46829 74.6821 10.7085L74.7704 10.798V9.52021L74.7723 9.4825C74.7907 9.29612 74.9441 9.14436 75.1325 9.12612L75.1707 9.12428H77.6084C77.8139 9.12428 77.9871 9.2837 78.0068 9.4825L78.0087 9.52021V22.4778L78.0068 22.5155C77.9883 22.7019 77.8349 22.8536 77.6465 22.8719L77.6084 22.8737H75.1707L75.1325 22.8719C74.9441 22.8536 74.7907 22.7019 74.7723 22.5155L74.7704 22.4778V21.2C73.5152 22.4958 71.7869 23.2336 69.9858 23.2336C66.1836 23.2336 63.1091 19.9942 63.1091 15.999C63.1091 12.0037 66.1836 8.76435 69.9858 8.76435ZM143.319 9.10629C143.392 9.10629 143.465 9.12428 143.519 9.16028C143.673 9.26151 143.73 9.47346 143.647 9.63301L143.628 9.66418L139.444 15.963L143.665 22.3158C143.701 22.3878 143.719 22.4598 143.719 22.5318C143.719 22.7173 143.575 22.8713 143.393 22.8898L143.355 22.8917H140.572C140.371 22.8917 140.184 22.7997 140.071 22.644L140.044 22.6037L137.534 18.4645L135.023 22.6037C134.923 22.7699 134.744 22.8747 134.546 22.8898L134.496 22.8917H131.676C131.603 22.8917 131.53 22.8737 131.476 22.8377C131.322 22.7365 131.265 22.5245 131.348 22.365L131.367 22.3338L135.587 15.981L131.403 9.68218C131.367 9.62819 131.349 9.5562 131.349 9.48421C131.349 9.29862 131.492 9.14467 131.675 9.12615L131.712 9.12428H134.532C134.734 9.12428 134.92 9.21629 135.033 9.37199L135.06 9.41223L137.516 13.4795L139.972 9.39423C140.072 9.22811 140.251 9.12332 140.449 9.10819L140.499 9.10629H143.319ZM55.814 8.76435C58.6021 8.76435 60.8745 10.8581 60.9252 13.4799L60.9261 13.5694L60.9443 22.4778L60.9424 22.5155C60.924 22.7019 60.7705 22.8536 60.5821 22.8719L60.544 22.8737H58.0881C57.8826 22.8737 57.7094 22.7143 57.6897 22.5155L57.6878 22.4778V14.5593C57.6878 12.8856 56.3962 11.6078 54.8498 11.6078C53.474 11.6078 52.3439 12.7883 52.0972 14.3308L52.0846 14.4153L52.1028 22.4778L52.1009 22.5155C52.0825 22.7019 51.9291 22.8536 51.7407 22.8719L51.7026 22.8737H49.2466C49.0411 22.8737 48.8679 22.7143 48.8482 22.5155L48.8464 22.4778V14.5593C48.8464 12.8856 47.5547 11.6078 46.0084 11.6078C44.5415 11.6078 43.3384 12.9477 43.2122 14.6351L43.2068 14.7212V22.4778L43.2049 22.5155C43.1865 22.7019 43.033 22.8536 42.8446 22.8719L42.8065 22.8737H40.3688L40.3306 22.8719C40.1422 22.8536 39.9888 22.7019 39.9704 22.5155L39.9685 22.4778V9.52021L39.9704 9.4825C39.9888 9.29612 40.1422 9.14436 40.3306 9.12612L40.3688 9.12428H42.8065L42.8446 9.12612C43.033 9.14436 43.1865 9.29612 43.2049 9.4825L43.2068 9.52021V10.672C44.08 9.48421 45.4808 8.76435 46.9726 8.76435C48.8828 8.74635 50.6656 9.79016 51.557 11.4638C52.3393 9.82615 53.9948 8.78235 55.814 8.76435ZM106.698 11.6618C104.417 11.6618 102.58 13.5208 102.498 15.8539L102.496 15.945V16.053C102.514 18.4285 104.388 20.3362 106.698 20.3362C109.008 20.3362 110.9 18.3925 110.9 15.999C110.9 13.6054 109.027 11.6618 106.698 11.6618ZM123.089 11.6618C120.779 11.6618 118.887 13.6054 118.887 15.999C118.887 18.3925 120.761 20.3362 123.089 20.3362C125.4 20.3362 127.292 18.3925 127.292 15.999C127.292 13.6054 125.4 11.6618 123.089 11.6618ZM70.5498 11.6618C68.2394 11.6618 66.3474 13.6054 66.3474 15.999C66.3474 18.3925 68.2212 20.3362 70.5498 20.3362C72.831 20.3362 74.6865 18.4765 74.7506 16.143L74.7522 16.053V15.945C74.734 13.5694 72.8602 11.6618 70.5498 11.6618ZM89.2151 11.6618C86.9343 11.6618 85.0967 13.5208 85.015 15.8539L85.0127 15.945V16.053C85.0309 18.4285 86.9047 20.3362 89.2151 20.3362C91.5437 20.3362 93.4175 18.3925 93.4175 15.999C93.4175 13.6054 91.5437 11.6618 89.2151 11.6618ZM18.0286 9.37623L19.6113 12.5976L22.8677 14.1633L19.6113 15.729L18.0286 18.9504L16.4459 15.729L13.1894 14.1633L16.4459 12.5976L18.0286 9.37623Z" fill="#A7AAB4"/>
</g>
<defs>
<clipPath id="clip0_812_806">
<rect width="143.719" height="32" fill="white"/>
</clipPath>
</defs>
</svg>
