<svg width="166" height="32" viewBox="0 0 166 32" fill="none" xmlns="http://www.w3.org/2000/svg">
<path d="M13.6668 25.9884C14.319 25.9884 14.9382 25.9278 15.5208 25.7922C16.1115 25.6566 16.636 25.4437 17.0784 25.1273C17.5208 24.824 17.8868 24.4077 18.1536 23.8772C18.4204 23.3527 18.5481 22.6712 18.5481 21.8469C18.5481 20.2329 18.1126 19.0863 17.2471 18.3905C16.3794 17.7042 15.2221 17.3629 13.7991 17.3629H6.61105V25.9884H13.6668ZM13.3019 12.6552C14.4729 12.6552 15.4421 12.365 16.2106 11.7763C16.9712 11.1982 17.3406 10.2407 17.3406 8.92764C17.3406 8.19973 17.2175 7.5967 16.9712 7.12927C16.7169 6.66184 16.3794 6.2955 15.953 6.03978C15.5299 5.77335 15.0522 5.589 14.4969 5.49028C13.953 5.37847 13.3817 5.33565 12.7968 5.33565H6.61105V12.6552H13.3019ZM14.1571 0C15.5926 0 16.8891 0.129645 18.0738 0.39726C19.2516 0.657739 20.2573 1.09306 21.1068 1.69014C21.9437 2.28603 22.5982 3.07936 23.0669 4.07846C23.5241 5.06328 23.7544 6.2955 23.7544 7.75371C23.7544 9.33085 23.4112 10.6475 22.7248 11.7001C22.0338 12.7516 21.0179 13.6139 19.661 14.2835C21.5093 14.8378 22.8776 15.8143 23.7852 17.2011C24.6974 18.5975 25.1432 20.2698 25.1432 22.2287C25.1432 23.8178 24.8513 25.1844 24.2698 26.3345C23.6814 27.499 22.881 28.4433 21.8947 29.1713C20.9004 29.9063 19.7579 30.4451 18.4786 30.796C17.2129 31.1468 15.8994 31.3229 14.5539 31.3229H0V0H14.1571Z" fill="#A7AAB4"/>
<path d="M41.4303 13.9684C40.7199 13.1489 39.5181 12.7052 38.0518 12.7052C37.0974 12.7052 36.3072 12.8729 35.6755 13.2143C35.0575 13.5509 34.5501 13.9707 34.1636 14.4643C33.7782 14.9663 33.5148 15.4955 33.362 16.0617C33.2092 16.6136 33.118 17.1143 33.0895 17.5568H42.8065C42.664 15.9677 42.1429 14.7938 41.4303 13.9684ZM34.5684 25.8838C35.4623 26.7949 36.7553 27.254 38.4303 27.254C39.6344 27.254 40.6754 26.9364 41.5489 26.3024C42.4143 25.6709 42.9411 24.9941 43.1452 24.2924H48.4039C47.559 27.022 46.2762 28.9715 44.526 30.1442C42.7974 31.3229 40.688 31.9105 38.2308 31.9105C36.5182 31.9105 34.9766 31.6203 33.5935 31.0517C32.2104 30.4749 31.0542 29.6661 30.0816 28.6123C29.134 27.5537 28.3986 26.3024 27.8741 24.8335C27.3553 23.3718 27.093 21.753 27.093 19.9986C27.093 18.3025 27.3655 16.7183 27.8957 15.2541C28.4385 13.7852 29.1876 12.5173 30.1728 11.454C31.1614 10.3847 32.3324 9.5414 33.6961 8.92529C35.0609 8.31037 36.5649 8.00232 38.2308 8.00232C40.07 8.00232 41.6811 8.37103 43.0619 9.12392C44.4382 9.86492 45.5659 10.87 46.453 12.1284C47.3389 13.3855 47.9695 14.8223 48.364 16.4328C48.754 18.0421 48.8919 19.7227 48.779 21.483H33.0895C33.0895 23.2754 33.671 24.9727 34.5684 25.8838Z" fill="#A7AAB4"/>
<path d="M57.2613 0V11.8108H57.3982C58.1564 10.4965 59.1153 9.54138 60.2943 8.94905C61.4711 8.35197 62.6193 8.057 63.7378 8.057C65.333 8.057 66.6397 8.27585 67.6602 8.72664C68.6819 9.18575 69.4903 9.80661 70.0821 10.6142C70.6624 11.4183 71.0729 12.3995 71.3135 13.5556C71.5495 14.7093 71.6716 15.982 71.6716 17.3855V31.3229H65.6705V18.5166C65.6705 16.6492 65.3912 15.2457 64.8347 14.3275C64.2772 13.4081 63.2874 12.9466 61.8599 12.9466C60.2453 12.9466 59.0777 13.4569 58.3548 14.4643C57.6182 15.4717 57.2613 17.1298 57.2613 19.4372V31.3229H51.2626V0H57.2613Z" fill="#A7AAB4"/>
<path d="M87.6893 20.7872C87.3175 20.9156 86.9059 21.0239 86.4818 21.1178C86.0439 21.2047 85.5867 21.2748 85.1123 21.3367C84.6426 21.3962 84.1591 21.464 83.6905 21.552C83.2435 21.6436 82.7965 21.7577 82.3712 21.9064C81.9379 22.0539 81.5582 22.2502 81.2458 22.4975C80.922 22.7485 80.6643 23.0625 80.467 23.4396C80.2755 23.8178 80.1729 24.309 80.1729 24.8894C80.1729 25.4437 80.2755 25.9111 80.467 26.2953C80.6643 26.6759 80.922 26.9733 81.2606 27.1933C81.5982 27.4133 81.9938 27.568 82.4339 27.6536C82.8809 27.7464 83.3427 27.7809 83.8159 27.7809C84.9903 27.7809 85.8957 27.5775 86.541 27.1695C87.183 26.7592 87.6665 26.2691 87.9686 25.6982C88.2765 25.1273 88.4623 24.5516 88.5228 23.9712C88.6014 23.3872 88.6368 22.9162 88.6368 22.563V20.2329C88.378 20.472 88.0735 20.6564 87.6893 20.7872ZM75.9346 11.9618C76.5424 10.9972 77.3257 10.2158 78.2789 9.6318C79.2322 9.04186 80.2971 8.62675 81.4944 8.37817C82.6871 8.12245 83.8798 8.00232 85.0907 8.00232C86.1796 8.00232 87.2811 8.08082 88.4156 8.24258C89.5319 8.40315 90.5524 8.71834 91.4782 9.18815C92.403 9.66034 93.1567 10.3062 93.7405 11.1495C94.3322 11.9714 94.6321 13.0846 94.6321 14.4643V26.2846C94.6321 27.3122 94.6914 28.2887 94.7963 29.2236C94.9149 30.1668 95.2216 30.8745 95.5112 31.3384L89.411 31.3229C89.232 31.0517 89.0838 30.6271 89.0142 30.2572C88.9435 29.8956 88.8945 29.5233 88.8671 29.1415C87.9173 30.1668 86.8033 30.8876 85.5057 31.2991C84.2184 31.7047 82.906 31.9105 81.5582 31.9105C80.5252 31.9105 79.5628 31.7737 78.6621 31.5096C77.775 31.2456 76.9871 30.8364 76.3155 30.2834C75.6404 29.7196 75.1216 29.0202 74.7431 28.1734C74.3668 27.3218 74.173 26.3084 74.173 25.138C74.173 23.8463 74.3953 22.783 74.8343 21.9504C75.2619 21.1178 75.8172 20.4482 76.5116 19.9522C77.1946 19.4527 77.9791 19.0768 78.8673 18.8318C79.7476 18.5844 80.6415 18.3798 81.5275 18.2359C82.4271 18.092 83.3028 17.9754 84.1773 17.8851C85.0542 17.7958 85.8136 17.6686 86.492 17.4902C87.1613 17.3165 87.6972 17.0525 88.0906 16.7183C88.4772 16.3828 88.663 15.8952 88.6368 15.2458C88.6368 14.5749 88.5228 14.0397 88.3164 13.6401C88.1089 13.2464 87.8284 12.9431 87.4852 12.7219C87.1328 12.5006 86.736 12.3555 86.2788 12.2782C85.8136 12.208 85.321 12.1688 84.7954 12.1688C83.6266 12.1688 82.7019 12.44 82.0463 12.9609C81.3724 13.4974 80.9847 14.3799 80.865 15.6121H74.8742C74.9609 14.1408 75.3075 12.9264 75.9346 11.9618Z" fill="#A7AAB4"/>
<path d="M103.589 8.64933V11.8108H103.722C104.478 10.4965 105.453 9.54138 106.664 8.94906C107.865 8.35198 109.109 8.05701 110.37 8.05701C111.972 8.05701 113.286 8.27586 114.302 8.72664C115.337 9.18575 116.14 9.80662 116.723 10.6142C117.321 11.4183 117.731 12.3995 117.97 13.5556C118.212 14.7093 118.332 15.982 118.332 17.3855V31.3229H112.329V18.5166C112.329 16.6492 112.047 15.2457 111.487 14.3275C110.919 13.4081 109.94 12.8182 108.502 12.8182C106.877 12.8182 105.694 13.4569 104.966 14.4643C104.234 15.4717 103.872 17.1298 103.872 19.4372V31.3229H97.9332V8.64933H103.589Z" fill="#A7AAB4"/>
<path d="M131.62 12.7052C130.66 12.7052 129.868 12.9264 129.23 13.3855C128.579 13.8435 128.048 14.4239 127.642 15.1435C127.235 15.8583 126.953 16.6493 126.779 17.5151C126.616 18.3798 126.525 19.2362 126.525 20.0878C126.525 20.9109 126.616 21.7447 126.779 22.5963C126.953 23.4431 127.221 24.2079 127.6 24.9049C127.984 25.5876 128.495 26.149 129.14 26.5927C129.782 27.0339 130.563 27.254 131.49 27.254C132.928 27.254 134.029 26.8353 134.801 26.0063C135.57 25.1725 136.045 24.0521 136.246 22.6486H142.013C141.618 25.6566 140.496 27.9545 138.65 29.5388C136.797 31.1124 134.424 31.9105 131.535 31.9105C129.902 31.9105 128.418 31.6203 127.05 31.0517C125.684 30.4749 124.525 29.6803 123.569 28.6551C122.614 27.6274 121.872 26.4059 121.33 24.9858C120.799 23.5633 120.533 22.0016 120.533 20.3067C120.533 18.5511 120.78 16.9157 121.271 15.404C121.761 13.8982 122.484 12.5934 123.447 11.4992C124.401 10.3978 125.569 9.5414 126.95 8.92529C128.325 8.31037 129.896 8.00232 131.66 8.00232C132.951 8.00232 134.19 8.1843 135.388 8.52447C136.576 8.87177 137.644 9.40819 138.581 10.1278C139.521 10.8426 140.29 11.7335 140.88 12.7956C141.463 13.8577 141.796 15.1304 141.888 16.585H136.032C135.644 13.9969 134.173 12.7052 131.62 12.7052Z" fill="#A7AAB4"/>
<path d="M31.8683 2.10168H44.0402V5.19294H31.8683V2.10168Z" fill="#A7AAB4"/>
<path d="M157.929 13.9684C157.209 13.1489 155.998 12.7052 154.55 12.7052C153.597 12.7052 152.804 12.8729 152.161 13.2143C151.542 13.5509 150.977 13.9707 150.597 14.4643C150.217 14.9663 149.945 15.4955 149.786 16.0617C149.645 16.6136 149.546 17.1143 149.519 17.5568H159.309C159.15 15.9677 158.641 14.7938 157.929 13.9684ZM150.993 25.8838C151.89 26.7949 153.245 27.254 154.932 27.254C156.134 27.254 157.173 26.9364 158.04 26.3024C158.908 25.6709 159.446 24.9941 159.638 24.2924H164.897C164.056 27.022 162.765 28.9715 161.027 30.1442C159.291 31.3229 157.191 31.9105 154.725 31.9105C153.007 31.9105 151.46 31.6203 150.087 31.0517C148.706 30.4749 147.549 29.6661 146.581 28.6123C145.623 27.5537 144.889 26.3024 144.367 24.8335C143.848 23.3718 143.59 21.753 143.59 19.9986C143.59 18.3025 143.857 16.7183 144.388 15.2541C144.927 13.7852 145.692 12.5173 146.671 11.454C147.664 10.3847 148.825 9.5414 150.185 8.92529C151.551 8.31037 153.068 8.00232 154.725 8.00232C156.561 8.00232 158.179 8.37103 159.547 9.12392C160.926 9.86492 162.06 10.87 162.94 12.1284C163.826 13.3855 164.463 14.8223 164.854 16.4328C165.24 18.0421 165.388 19.7227 165.277 21.483H149.519C149.519 23.2754 150.093 24.9727 150.993 25.8838Z" fill="#A7AAB4"/>
</svg>
