<svg width="120" height="32" viewBox="0 0 120 32" fill="none" xmlns="http://www.w3.org/2000/svg">
<path d="M22.9469 13.6547H12.9353C12.677 13.6547 12.4674 13.8625 12.4674 14.1182V18.965C12.4674 19.2207 12.677 19.4288 12.9353 19.4288H16.8408V25.4505C16.8408 25.4505 15.9638 25.7465 13.5393 25.7465C10.6789 25.7465 6.68309 24.7116 6.68309 16.0114C6.68309 7.30916 10.8439 6.16421 14.7502 6.16421C18.1316 6.16421 19.5883 6.75376 20.5152 7.03773C20.8064 7.12616 21.0758 6.839 21.0758 6.58304L22.1927 1.90006C22.1927 1.78043 22.1518 1.63624 22.0138 1.53823C21.6375 1.27244 19.341 0 13.5393 0C6.85575 0 0 2.81558 0 16.3506C0 29.8861 7.84932 31.9031 14.4637 31.9031C19.9404 31.9031 23.2627 29.5857 23.2627 29.5857C23.3996 29.5108 23.4145 29.3214 23.4145 29.2344V14.1182C23.4145 13.8625 23.2051 13.6547 22.9469 13.6547ZM74.5152 1.69421C74.5152 1.43629 74.3088 1.22822 74.0506 1.22822H68.4134C68.1559 1.22822 67.9465 1.43629 67.9465 1.69421C67.9465 1.69544 67.948 12.4812 67.948 12.4812H59.1612V1.69421C59.1612 1.43629 58.9538 1.22822 58.696 1.22822H53.0591C52.8026 1.22822 52.5934 1.43629 52.5934 1.69421V30.9021C52.5934 31.1598 52.8026 31.3696 53.0591 31.3696H58.696C58.9538 31.3696 59.1612 31.1598 59.1612 30.9021V18.4089H67.948C67.948 18.4089 67.9326 30.9011 67.9326 30.9021C67.9326 31.1598 68.1417 31.3696 68.3995 31.3696H74.0501C74.3083 31.3696 74.5147 31.1598 74.5152 30.9021V1.69421ZM33.5663 5.59923C33.5663 3.58936 31.9388 1.96516 29.9311 1.96516C27.9254 1.96516 26.2967 3.58936 26.2967 5.59923C26.2967 7.60689 27.9254 9.23551 29.9311 9.23551C31.9388 9.23551 33.5663 7.60689 33.5663 5.59923ZM33.119 24.7561V11.2736C33.119 11.0177 32.9103 10.8084 32.6526 10.8084H27.0333C26.7755 10.8084 26.5448 11.0717 26.5448 11.3277V30.644C26.5448 31.2116 26.902 31.3804 27.3645 31.3804H32.4273C32.9828 31.3804 33.119 31.1104 33.119 30.6349V24.7561ZM96.0602 10.8084H90.4661C90.2096 10.8084 90.0007 11.0177 90.0007 11.2753V25.5969C90.0007 25.5969 88.5797 26.6264 86.5626 26.6264C84.5457 26.6264 84.0103 25.7203 84.0103 23.7647V11.2753C84.0103 11.0177 83.8019 10.8084 83.5452 10.8084H77.8678C77.6115 10.8084 77.4016 11.0177 77.4016 11.2753V24.7104C77.4016 30.5189 80.6711 31.94 85.1688 31.94C88.8586 31.94 91.8336 29.9215 91.8336 29.9215C91.8336 29.9215 91.9752 30.9852 92.0392 31.1114C92.1035 31.2372 92.2704 31.3642 92.4508 31.3642L96.0626 31.3485C96.3189 31.3485 96.5288 31.1387 96.5288 30.8822L96.527 11.2753C96.527 11.0177 96.3179 10.8084 96.0602 10.8084ZM108.949 26.6375C107.009 26.579 105.692 25.7072 105.692 25.7072V16.4577C105.692 16.4577 106.991 15.6697 108.584 15.5287C110.598 15.3501 112.539 15.9527 112.539 20.7108C112.539 25.7284 111.663 26.7186 108.949 26.6375ZM111.155 10.181C107.978 10.181 105.817 11.5846 105.817 11.5846V1.69421C105.817 1.43629 105.609 1.22822 105.352 1.22822H99.6988C99.4418 1.22822 99.2329 1.43629 99.2329 1.69421V30.9021C99.2329 31.1598 99.4418 31.3696 99.6995 31.3696H103.622C103.798 31.3696 103.932 31.2794 104.031 31.1215C104.128 30.9645 104.269 29.7749 104.269 29.7749C104.269 29.7749 106.581 31.9439 110.956 31.9439C116.094 31.9439 119.04 29.3637 119.04 20.3605C119.04 11.3574 114.335 10.181 111.155 10.181ZM49.3433 10.7583H45.1147C45.1147 10.7583 45.1083 5.22806 45.1083 5.22683C45.1083 5.01754 44.9994 4.9129 44.755 4.9129H38.9926C38.7686 4.9129 38.6482 5.01042 38.6482 5.22364V10.9398C38.6482 10.9398 35.7606 11.6301 35.5653 11.6858C35.3708 11.7416 35.2277 11.9192 35.2277 12.1309V15.723C35.2277 15.9814 35.4361 16.1897 35.6938 16.1897H38.6482V24.831C38.6482 31.2495 43.1951 31.88 46.2634 31.88C47.6653 31.88 49.3423 31.4342 49.6192 31.333C49.7866 31.2721 49.8839 31.1004 49.8839 30.9142L49.8886 26.9627C49.8886 26.705 49.6688 26.4965 49.4212 26.4965C49.1749 26.4965 48.5445 26.5957 47.8955 26.5957C45.8186 26.5957 45.1147 25.6394 45.1147 24.4016C45.1147 23.1648 45.1145 16.1897 45.1145 16.1897H49.3433C49.6011 16.1897 49.8097 15.9814 49.8097 15.723V11.2238C49.8097 10.9661 49.6011 10.7583 49.3433 10.7583Z" fill="#A7AAB4"/>
</svg>
