<svg width="130" height="32" viewBox="0 0 130 32" fill="none" xmlns="http://www.w3.org/2000/svg">
<path d="M41.3428 25.0794L42.9569 21.4278C44.7012 22.6957 47.0183 23.355 49.3093 23.355C51.0016 23.355 52.069 22.721 52.069 21.7574C52.0429 19.0694 41.9416 21.1742 41.8635 14.4289C41.8374 11.0055 44.9616 8.36824 49.3874 8.36824C52.0169 8.36824 54.6464 9.0022 56.5209 10.4476L55.0109 14.1753C53.2926 13.1102 51.1578 12.3495 49.1271 12.3495C47.7473 12.3495 46.836 12.9835 46.836 13.7949C46.8621 16.4322 57.0416 14.9868 57.1457 21.4278C57.1457 24.9272 54.0997 27.387 49.7259 27.387C46.5236 27.387 43.5817 26.6516 41.3428 25.0794ZM103.279 20.1091L107.731 22.5182C106.064 25.4344 102.888 27.387 99.2174 27.387C93.8283 27.387 89.4545 23.1268 89.4545 17.8776C89.4545 12.6284 93.8283 8.36824 99.2174 8.36824C102.862 8.36824 106.064 10.3462 107.731 13.237L103.279 15.6461C102.472 14.2767 100.962 13.3385 99.2174 13.3385C96.64 13.3385 94.5572 15.3671 94.5572 17.8776C94.5572 20.3881 96.64 22.4167 99.2174 22.4167C100.962 22.4167 102.472 21.4785 103.279 20.1091ZM59.3847 0.481812H64.956V27.032H59.3847V0.481812ZM109.918 0.481812H115.489V16.0772L121.789 8.74862H128.61L120.826 17.5733L129.235 27.032H122.102L115.489 19.0695V27.032H109.918V0.481812ZM81.514 20.1599V15.6714C80.7069 14.3528 79.0407 13.3385 77.1662 13.3385C74.5888 13.3385 72.506 15.3671 72.506 17.8776C72.506 20.3881 74.5888 22.4167 77.1662 22.4167C79.0407 22.4167 80.7069 21.4531 81.514 20.1599ZM81.514 8.74862H87.0853V27.0066H81.514V24.8511C80.6027 26.3473 78.3377 27.387 75.9686 27.387C71.0741 27.387 67.221 23.1268 67.221 17.8523C67.221 12.5777 71.0741 8.36824 75.9686 8.36824C78.3377 8.36824 80.6027 9.40794 81.514 10.9041V8.74862Z" fill="#A7AAB4"/>
<path d="M6.89922 20.1345C6.89922 21.9856 5.36319 23.4818 3.46267 23.4818C1.56216 23.4818 0.026123 21.9856 0.026123 20.1345C0.026123 18.2833 1.56216 16.7872 3.46267 16.7872H6.89922V20.1345ZM8.61749 20.1345C8.61749 18.2833 10.1535 16.7872 12.054 16.7872C13.9546 16.7872 15.4906 18.2833 15.4906 20.1345V28.5027C15.4906 30.3539 13.9546 31.85 12.054 31.85C10.1535 31.85 8.61749 30.3539 8.61749 28.5027V20.1345Z" fill="#A7AAB4"/>
<path d="M12.054 6.69459C10.1534 6.69459 8.61741 5.19845 8.61741 3.3473C8.61741 1.49614 10.1534 0 12.054 0C13.9545 0 15.4905 1.49614 15.4905 3.3473V6.69459H12.054ZM12.054 8.3936C13.9545 8.3936 15.4905 9.88974 15.4905 11.7409C15.4905 13.5921 13.9545 15.0882 12.054 15.0882H3.43655C1.53603 15.0882 0 13.5921 0 11.7409C0 9.88974 1.53603 8.3936 3.43655 8.3936H12.054Z" fill="#A7AAB4"/>
<path d="M25.8262 11.7409C25.8262 9.88974 27.3623 8.3936 29.2628 8.3936C31.1633 8.3936 32.6993 9.88974 32.6993 11.7409C32.6993 13.5921 31.1633 15.0882 29.2628 15.0882H25.8262V11.7409ZM24.108 11.7409C24.108 13.5921 22.5719 15.0882 20.6714 15.0882C18.7709 15.0882 17.2349 13.5921 17.2349 11.7409V3.3473C17.2349 1.49614 18.7709 0 20.6714 0C22.5719 0 24.108 1.49614 24.108 3.3473V11.7409Z" fill="#A7AAB4"/>
<path d="M20.6714 25.1554C22.5719 25.1554 24.108 26.6515 24.108 28.5027C24.108 30.3539 22.5719 31.85 20.6714 31.85C18.7709 31.85 17.2349 30.3539 17.2349 28.5027V25.1554H20.6714ZM20.6714 23.4818C18.7709 23.4818 17.2349 21.9856 17.2349 20.1345C17.2349 18.2833 18.7709 16.7872 20.6714 16.7872H29.2888C31.1893 16.7872 32.7254 18.2833 32.7254 20.1345C32.7254 21.9856 31.1893 23.4818 29.2888 23.4818H20.6714Z" fill="#A7AAB4"/>
</svg>
