<svg width="134" height="32" viewBox="0 0 134 32" fill="none" xmlns="http://www.w3.org/2000/svg">
<path d="M40.886 12.7801C42.4176 12.7801 43.6591 11.5733 43.6591 10.0847C43.6591 8.59614 42.4176 7.38934 40.886 7.38934C39.3544 7.38934 38.1129 8.59614 38.1129 10.0847C38.1129 11.5733 39.3544 12.7801 40.886 12.7801ZM132.405 21.9894C131.983 21.701 131.658 21.6534 131.388 22.2132C126.73 32.0152 118.881 27.1239 119.661 27.5544C121.402 26.7804 125.981 23.2121 125.289 18.2853C124.868 15.2742 122.209 13.9386 119.386 14.4169C114.458 15.2515 112.645 20.4161 113.568 24.9888C113.73 25.7739 114.018 26.4217 114.306 27.056C108.738 31.4562 106.526 23.1168 106.275 22.1204C106.265 22.0672 110.575 18.5765 111.774 10.2587C113.03 1.54124 110.168 -0.0458726 107.241 0.00359455C101.826 0.0953032 100.363 11.0898 102.329 20.2529C102.164 20.2946 101.398 20.707 100.167 20.7531C99.2804 18.0442 95.4948 15.6697 94.5038 16.5845C92.024 18.8738 95.1053 23.3487 97.2732 23.6999C95.9709 31.4944 87.8261 29.5638 89.3423 19.7985C91.9947 15.0127 94.0118 7.89624 93.6517 3.6001C93.5243 2.07899 92.367 0.0411117 89.7494 0.141852C84.7154 0.335552 84.1682 11.3331 84.7585 19.1385C84.729 18.9463 84.449 20.0868 82.3861 20.654C81.8981 18.022 77.5369 15.3802 76.5102 16.6504C74.5886 19.0276 77.9189 23.2659 79.4966 23.5617C78.1943 31.3561 70.0496 29.4255 71.5658 19.6602C74.218 14.8744 76.2352 7.75798 75.8751 3.46184C75.7477 1.94073 74.5906 -0.097146 71.9728 0.00359455C66.9388 0.197433 66.3916 11.1948 66.9819 19.0002C66.9521 18.8051 66.6656 19.983 64.5184 20.5411C64.4465 17.1264 60.0695 15.5609 59.018 16.6504C57.1441 18.5922 59.4471 22.5771 61.5778 23.5617C60.2755 31.3561 52.1309 29.4255 53.6471 19.6602C56.2993 14.8744 58.3164 7.75798 57.9564 3.46184C57.829 1.94073 56.6718 -0.097146 54.0541 0.00359455C49.0201 0.197433 48.6151 11.7477 49.2054 19.5531C47.5474 26.4561 41.9869 35.0769 42.7091 17.8077C42.7805 16.5965 42.8584 16.1363 42.237 15.6829C41.7711 15.3302 40.712 15.4997 40.1333 15.5139C39.4296 15.5413 39.2531 15.9414 39.0977 16.546C38.7353 18.1074 38.6704 19.6211 38.6187 21.6863C38.5846 22.6524 38.5048 23.1032 38.1222 24.4205C37.7395 25.7377 35.5582 28.145 34.3636 27.7427C32.7067 27.1887 33.2499 22.6434 33.5607 19.5203C33.8195 17.0521 32.9911 15.9439 30.8681 15.5408C29.6253 15.2891 28.8702 15.3278 27.576 14.9314C26.3521 14.5565 26.0751 12.3067 23.4649 13.0565C22.0368 13.4668 22.9547 16.4067 22.6117 18.5856C20.9246 29.3031 17.4141 29.5974 15.7855 24.391C23.1202 6.93594 17.9073 0.0544512 14.8563 0.0544512C11.678 0.0544512 8.04496 2.18154 9.58334 15.7922C8.83532 15.5802 8.60538 15.466 7.78657 15.466C3.15541 15.466 0 19.1039 0 23.5915C0 28.0791 3.15541 31.717 7.78657 31.717C10.5206 31.717 12.4397 30.509 13.8936 28.6399C14.842 29.9598 15.997 31.7374 18.1091 31.6574C24.4044 31.4192 26.2355 18.8708 26.4515 18.1709C27.1246 18.2717 27.7613 18.4625 28.3827 18.5632C29.4183 18.7144 29.4933 19.1126 29.47 20.1248C29.1958 28.6589 30.8164 31.6471 34.4926 31.6471C36.5409 31.6471 38.3667 29.6918 39.6244 28.2934C40.5637 30.1773 42.0605 31.5896 44.0685 31.6471C48.9344 31.7645 50.7973 24.2287 50.6276 25.2204C50.4943 25.9986 52.2061 31.6046 57.2154 31.625C63.4205 31.6502 64.5738 25.0196 64.7115 23.909C64.7287 23.6879 64.7361 23.7111 64.7115 23.909C64.7099 23.9296 64.7082 23.9515 64.7065 23.9764C66.6764 23.6204 67.693 22.5941 67.693 22.5941C67.693 22.5941 69.2747 31.7281 75.1341 31.625C81.2183 31.5179 82.3657 25.5244 82.5165 24.3556C82.5363 24.0782 82.5481 24.1107 82.5165 24.3556C82.5157 24.3671 82.515 24.3773 82.5141 24.3899C84.8541 23.5626 85.4695 22.7323 85.4695 22.7323C85.4695 22.7323 86.7269 31.6848 92.9106 31.7631C98.4213 31.833 100.463 26.3498 100.475 24.0546C101.405 24.0642 103.124 23.5189 103.084 23.4877C103.084 23.4877 105.102 31.315 110.739 31.717C113.386 31.9057 115.371 30.2701 116.503 29.5238C119.163 31.6168 128.019 34.29 133.611 25.0773C134.4 23.7552 132.703 22.1932 132.405 21.9894ZM7.56306 28.6778C4.8611 28.6778 3.12853 26.2502 3.12853 23.6326C3.12853 21.015 4.71881 18.5874 7.42077 18.5874C8.63684 18.5874 9.31293 18.7174 10.26 19.5178C10.4319 20.1752 10.9184 21.692 11.1553 22.3808C11.4725 23.3023 11.8499 24.0868 12.2305 24.9407C11.6867 27.1307 9.90466 28.6778 7.56306 28.6778ZM14.1473 19.5948C14.035 19.4208 14.0583 19.5277 13.9327 19.3633C13.4374 18.0542 12.4829 15.1319 12.3724 11.8126C12.2474 8.05812 12.8915 3.65721 14.7901 3.65721C16.0765 3.65721 17.4437 12.5764 14.1473 19.5948ZM52.1918 15.6829C51.8869 13.4548 51.8711 3.52201 54.3251 3.79547C55.6798 4.32877 53.4659 13.7017 52.1918 15.6829ZM70.1105 15.6829C69.8057 13.4548 69.7898 3.52201 72.2438 3.79547C73.5986 4.32877 71.3847 13.7017 70.1105 15.6829ZM87.8872 15.8211C87.5821 13.593 87.5664 3.66027 90.0203 3.93373C91.3752 4.46703 89.1611 13.8399 87.8872 15.8211ZM107.512 3.21409C109.756 2.98816 109.663 12.5085 105.16 18.5187C104.58 16.3465 103.689 3.96013 107.512 3.21409ZM116.943 23.6999C116.222 20.1628 118.084 17.8397 120.003 17.585C120.674 17.4808 121.646 17.9032 121.84 18.6927C122.159 20.1808 121.794 22.3879 117.498 25.1885C117.504 25.2124 117.103 24.4874 116.943 23.6999Z" fill="#A7AAB4"/>
</svg>
