<svg width="113" height="32" viewBox="0 0 113 32" fill="none" xmlns="http://www.w3.org/2000/svg">
<g clip-path="url(#clip0_812_798)">
<path d="M103.429 27.3686H106.649L112.22 13.25H109.033L106.73 20.2817L104.304 13.25H100.746L104.982 23.4482L103.429 27.3686ZM87.4466 16.6015V23.8387H84.198V13.25H86.4805L87.1591 14.175C88.043 13.4351 88.9888 13.003 90.0786 13.003C91.5386 13.003 92.6487 13.4351 93.3272 14.5046C94.314 13.5994 95.3628 13.003 96.6996 13.003C99.2078 13.003 100.668 14.2987 100.668 17.8146V23.8387H97.4192V18.1848C97.4192 16.5605 96.7609 16.0873 95.7122 16.0873C95.0955 16.0873 94.5818 16.2516 94.0057 16.6218C94.0473 16.992 94.0676 17.3825 94.0676 17.8146V23.8387H90.819V18.1848C90.819 16.5605 90.1607 16.0873 89.0917 16.0873C88.4953 16.0873 88.0019 16.2313 87.4466 16.6015ZM76.1165 17.5062H80.2906C80.0644 16.1289 79.324 15.4707 78.2139 15.4707C77.2676 15.4707 76.3634 16.026 76.1165 17.5062ZM78.4401 24.0446C75.3147 24.0446 72.806 22.5024 72.806 18.4312C72.806 14.6273 75.2325 12.9827 78.0288 12.9827C81.4007 12.9827 82.9018 15.3469 82.9018 19.0687H76.0957C76.3223 20.8984 77.4532 21.4334 78.9543 21.4334C80.406 21.4334 81.5416 21.0752 82.4203 20.484L81.9794 23.0608C81.1407 23.7087 80.1341 24.0446 78.4401 24.0446ZM66.3435 21.3102C67.0834 21.3102 67.6387 21.1864 68.2143 20.7549V16.1492C67.7006 15.8403 67.1869 15.6968 66.4465 15.6968C64.8633 15.6968 63.9586 16.7658 63.9586 18.5545C63.9586 20.3025 64.8841 21.3102 66.3435 21.3102ZM68.8518 23.0577C68.0089 23.6952 67.0429 24.0856 65.665 24.0856C62.7658 24.0856 60.6689 22.297 60.6689 18.6163C60.6689 14.9564 63.0746 12.9827 66.1584 12.9827C66.8781 12.9827 67.5774 13.0857 68.2143 13.3321V8.83771H71.4635V23.8387H69.4071L68.8518 23.0577ZM46.9038 17.5676V9.72006H50.2757V17.5062C50.2757 20.3025 51.5298 20.8781 53.257 20.8781C55.1283 20.8781 56.0944 20.0555 56.0944 17.5062V9.72006H59.487V17.5676C59.487 22.1941 57.4722 24.1267 53.0927 24.1267C49.0215 24.1267 46.9038 22.4613 46.9038 17.5676Z" fill="#A7AAB4"/>
<path d="M38.3102 18.156C38.1735 18.0463 38.0196 17.9725 37.8521 17.9407C36.8632 18.9266 35.6564 19.9649 34.5848 20.6627C34.0903 20.9913 33.4685 21.1556 33.0567 21.1556C32.1088 21.1556 31.697 20.2519 31.5733 18.8153C31.4084 16.8858 31.2972 14.5746 31.2972 11.0026C31.2972 7.33904 30.4658 4.8485 28.2508 4.653C28.1572 4.64468 28.0626 4.63896 27.9638 4.63896C26.6041 4.63896 25.9448 5.33673 25.0797 7.10246C24.3382 8.62122 23.1845 10.8383 21.0423 15.0259C19.1881 18.639 17.1281 21.8414 15.3561 24.0584C14.8627 24.673 14.4728 25.0952 14.1062 25.3354C13.8613 25.4966 13.6263 25.5772 13.3788 25.5772C12.6795 25.5772 12.1689 24.987 11.9983 23.6128C11.9578 23.2863 11.9365 22.9156 11.9365 22.4981C11.9365 19.6654 13.0081 15.067 14.8617 8.29262C16.2213 3.36613 15.6447 0 12.6779 0C12.6732 0 12.6685 0 12.6639 0C12.6576 0 12.6514 0 12.6446 0L12.6425 0.000519946C11.9708 0.00831913 11.4139 0.251654 10.8773 0.67385C10.3491 1.08981 9.82028 1.98827 9.32685 3.19611C8.77051 4.55681 5.38774 11.3421 0.00370184 14.8377C-0.0597316 16.1667 0.69263 17.4951 2.21711 17.6392C3.60485 17.7707 4.59015 17.1858 5.85881 16.3336C5.76366 16.7573 5.67579 17.1535 5.59572 17.5159C5.50109 17.9439 5.4205 18.313 5.35603 18.6109C5.25932 19.0545 5.19796 19.3399 5.17976 19.4189C5.0035 20.2275 4.87768 20.9954 4.79604 21.7244C4.03692 28.5102 7.18208 31.8586 10.8654 31.8586C11.481 31.8586 12.0909 31.7853 12.6966 31.6314C16.7548 30.6025 20.6617 25.9474 25.2861 15.2313C25.2159 16.397 25.2086 17.4858 25.259 18.496C25.5637 24.6376 27.9929 26.4803 31.4251 26.4803C34.0206 26.4803 36.4514 25.1259 37.6873 23.4423C38.5941 22.2516 38.9648 20.9377 38.9648 19.9113C38.9648 19.1148 38.7121 18.4789 38.3102 18.156Z" fill="#A7AAB4"/>
</g>
<defs>
<clipPath id="clip0_812_798">
<rect width="112.219" height="32" fill="white"/>
</clipPath>
</defs>
</svg>
