<svg width="38" height="25" viewBox="0 0 38 25" fill="none" xmlns="http://www.w3.org/2000/svg">
<path d="M0 24.2812V0.21875H9.625V4.9082H4.83984V8.73633H9.37891V13.3711H4.83984V24.2812H0Z" fill="white"/>
<path d="M17.3458 24.5C15.4226 24.5 13.9506 23.9212 12.9298 22.7637C11.918 21.597 11.4122 19.9154 11.4122 17.7188V6.28906C11.4122 4.22917 11.9135 2.66602 12.9161 1.59961C13.9278 0.533203 15.4044 0 17.3458 0C19.2872 0 20.7592 0.533203 21.7618 1.59961C22.7735 2.66602 23.2794 4.22917 23.2794 6.28906V17.7188C23.2794 19.9154 22.769 21.597 21.7481 22.7637C20.7364 23.9212 19.269 24.5 17.3458 24.5ZM17.3868 20.0703C18.116 20.0703 18.4805 19.3639 18.4805 17.9512V6.20703C18.4805 5.02214 18.1251 4.42969 17.4141 4.42969C16.6121 4.42969 16.211 5.03581 16.211 6.24805V17.9785C16.211 18.7259 16.3022 19.2637 16.4845 19.5918C16.6667 19.9108 16.9675 20.0703 17.3868 20.0703Z" fill="white" fill-opacity="0.52"/>
<path d="M24.9435 24.2812L27.5275 11.5254L25.4767 0.205078H30.1798L31.424 8.47656L32.5314 0.205078H37.2482L35.1974 11.5254L37.7677 24.2812H32.9005L31.383 14.875L29.8244 24.2812H24.9435Z" fill="url(#paint0_linear_12_51)"/>
<defs>
<linearGradient id="paint0_linear_12_51" x1="18.9336" y1="-8.71875" x2="18.9336" y2="31.2812" gradientUnits="userSpaceOnUse">
<stop stop-color="#FE390C"/>
<stop offset="1" stop-color="#521B0E"/>
</linearGradient>
</defs>
</svg>
