<svg width="1178" height="280" viewBox="0 0 1178 280" fill="none" xmlns="http://www.w3.org/2000/svg">
<path d="M0 277.5L26.5625 2.5H119.844L145.938 277.5H93.9062L90 233.125H56.875L53.4375 277.5H0ZM60.7812 189.219H85.7812L73.75 49.375H71.25L60.7812 189.219ZM162.812 277.5V2.5H237.344C257.344 2.5 271.875 7.39583 280.938 17.1875C290.104 26.875 294.688 42.9167 294.688 65.3125V77.3438C294.688 90.2604 292.344 100.729 287.656 108.75C283.073 116.771 276.042 122.031 266.562 124.531C278.958 127.656 287.24 135 291.406 146.562C295.677 158.021 297.812 172.031 297.812 188.594C297.812 206.406 296.146 221.979 292.812 235.312C289.479 248.646 283.438 259.01 274.688 266.406C265.938 273.802 253.49 277.5 237.344 277.5H162.812ZM216.562 106.094H227.812C232.917 106.094 236.198 104.115 237.656 100.156C239.115 96.1979 239.844 91.4583 239.844 85.9375V58.2812C239.844 49.4271 235.938 45 228.125 45H216.562V106.094ZM222.031 229.062C236.302 229.062 243.438 222.292 243.438 208.75V174.375C243.438 166.562 242.24 160.417 239.844 155.938C237.552 151.354 233.177 149.062 226.719 149.062H216.562V228.75C218.854 228.958 220.677 229.062 222.031 229.062ZM381.562 280C359.583 280 342.76 273.385 331.094 260.156C319.531 246.823 313.75 227.604 313.75 202.5V71.875C313.75 48.3333 319.479 30.4688 330.938 18.2812C342.5 6.09375 359.375 0 381.562 0C403.75 0 420.573 6.09375 432.031 18.2812C443.594 30.4688 449.375 48.3333 449.375 71.875V202.5C449.375 227.604 443.542 246.823 431.875 260.156C420.312 273.385 403.542 280 381.562 280ZM382.031 229.375C390.365 229.375 394.531 221.302 394.531 205.156V70.9375C394.531 57.3958 390.469 50.625 382.344 50.625C373.177 50.625 368.594 57.5521 368.594 71.4062V205.469C368.594 214.01 369.635 220.156 371.719 223.906C373.802 227.552 377.24 229.375 382.031 229.375ZM535.156 280C512.24 280 495.365 273.594 484.531 260.781C473.698 247.865 468.281 228.906 468.281 203.906V2.5H521.719V201.719C521.719 206.302 521.979 210.729 522.5 215C523.021 219.167 524.219 222.604 526.094 225.312C527.969 228.021 530.99 229.375 535.156 229.375C539.427 229.375 542.5 228.073 544.375 225.469C546.25 222.76 547.396 219.271 547.812 215C548.333 210.729 548.594 206.302 548.594 201.719V2.5H602.031V203.906C602.031 228.906 596.615 247.865 585.781 260.781C574.948 273.594 558.073 280 535.156 280ZM646.719 277.5V55.3125H614.062V2.5H734.375V55.3125H701.719V277.5H646.719ZM824.688 277.5V2.5H908.438L931.562 170.156L954.531 2.5H1039.06V277.5H988.75V79.375L957.188 277.5H907.812L874.375 79.375V277.5H824.688ZM1063.44 277.5V2.5H1173.44V55.625H1119.38V109.219H1171.25V160.938H1119.38V223.906H1177.03V277.5H1063.44Z" fill="white" fill-opacity="0.02"/>
</svg>
