<svg width="42" height="264" viewBox="0 0 42 264" fill="none" xmlns="http://www.w3.org/2000/svg">
<circle cx="21" cy="169" r="21" fill="white" fill-opacity="0.1"/>
<path d="M14.6508 164.717C15.7786 164.717 16.6929 163.803 16.6929 162.675C16.6929 161.547 15.7786 160.633 14.6508 160.633C13.5229 160.633 12.6086 161.547 12.6086 162.675C12.6086 163.803 13.5229 164.717 14.6508 164.717Z" fill="white"/>
<path d="M18.6212 166.265V177.594H22.1389V171.992C22.1389 170.513 22.4171 169.082 24.2501 169.082C26.058 169.082 26.0804 170.772 26.0804 172.085V177.595H29.6V171.382C29.6 168.33 28.9429 165.985 25.3757 165.985C23.6631 165.985 22.5151 166.925 22.0456 167.814H21.998V166.265H18.6212ZM12.8887 166.265H16.412V177.594H12.8887V166.265Z" fill="white"/>
<circle cx="21" cy="243" r="21" fill="white" fill-opacity="0.1"/>
<path d="M29.2827 238.515C28.4682 237.103 27.2961 235.932 25.8844 235.117C24.4536 234.284 22.8922 233.867 21.2 233.867C19.5079 233.867 17.9464 234.284 16.5147 235.117C15.0839 235.951 13.9508 237.084 13.1174 238.515C12.2839 239.946 11.8667 241.508 11.8667 243.2C11.8667 244.892 12.283 246.455 13.1174 247.885C13.9315 249.297 15.1037 250.469 16.5156 251.283C17.9464 252.116 19.5079 252.533 21.2 252.533C22.8922 252.533 24.4536 252.116 25.8854 251.283C27.297 250.469 28.4692 249.297 29.2836 247.885C30.1171 246.455 30.5334 244.892 30.5334 243.2C30.5334 241.508 30.1171 239.946 29.2827 238.515ZM21.2 235.416C23.0667 235.416 24.7206 236.013 26.1654 237.207C25.3067 238.303 24.0318 239.205 22.3387 239.914C21.4035 238.222 20.3899 236.809 19.2951 235.677C19.9156 235.505 20.5563 235.417 21.2 235.416ZM15.1427 238.347C15.8252 237.48 16.6887 236.773 17.673 236.275C18.8042 237.396 19.843 238.795 20.7903 240.475C18.9236 241.035 16.9506 241.315 14.872 241.315C14.3372 241.315 13.9331 241.303 13.6587 241.277C13.9447 240.208 14.4501 239.21 15.1427 238.347ZM13.416 243.2C13.416 243.15 13.4188 243.088 13.4254 243.013C13.4319 242.939 13.4347 242.877 13.4347 242.827C13.6718 242.84 14.033 242.845 14.5183 242.845C17.0066 242.845 19.3212 242.503 21.4614 241.819C21.6359 242.167 21.817 242.559 22.0027 242.995C20.7707 243.268 19.507 243.934 18.2124 244.992C16.9179 246.051 15.9734 247.164 15.376 248.333C14.0694 246.852 13.416 245.141 13.416 243.2ZM21.2 250.984C19.4323 250.984 17.8456 250.436 16.4391 249.342C17 248.235 17.8615 247.175 19.0254 246.168C20.1883 245.16 21.3428 244.532 22.488 244.283C23.2104 246.279 23.699 248.353 23.944 250.461C23.0694 250.803 22.1391 250.98 21.2 250.984ZM27.808 247.288C27.1971 248.272 26.3745 249.108 25.4 249.734C25.176 247.793 24.7467 245.901 24.113 244.059C24.9828 243.997 25.7603 243.965 26.4463 243.965C27.192 243.965 28.0199 243.997 28.928 244.059C28.8062 245.207 28.4231 246.311 27.808 247.288ZM26.6507 242.621C25.568 242.621 24.5666 242.665 23.6454 242.752C23.4502 242.241 23.2386 241.737 23.0107 241.24C24.939 240.395 26.3072 239.368 27.1164 238.16C28.2364 239.48 28.8468 240.985 28.9458 242.677C28.1879 242.64 27.4226 242.621 26.6507 242.621Z" fill="white"/>
<circle cx="21" cy="21" r="21" fill="white" fill-opacity="0.1"/>
<path d="M21.199 16.8854C20.0544 16.8854 18.9567 17.3401 18.1474 18.1494C17.338 18.9588 16.8833 20.0565 16.8833 21.2011C16.8833 22.3457 17.338 23.4434 18.1474 24.2528C18.9567 25.0622 20.0544 25.5168 21.199 25.5168C22.3436 25.5168 23.4414 25.0622 24.2507 24.2528C25.0601 23.4434 25.5148 22.3457 25.5148 21.2011C25.5148 20.0565 25.0601 18.9588 24.2507 18.1494C23.4414 17.3401 22.3436 16.8854 21.199 16.8854ZM21.199 24.0039C20.4554 24.0039 19.7423 23.7085 19.2165 23.1827C18.6907 22.6569 18.3953 21.9438 18.3953 21.2002C18.3953 20.4566 18.6907 19.7434 19.2165 19.2176C19.7423 18.6918 20.4554 18.3964 21.199 18.3964C21.9426 18.3964 22.6558 18.6918 23.1816 19.2176C23.7074 19.7434 24.0028 20.4566 24.0028 21.2002C24.0028 21.9438 23.7074 22.6569 23.1816 23.1827C22.6558 23.7085 21.9426 24.0039 21.199 24.0039Z" fill="white"/>
<path d="M25.6856 17.7327C26.2413 17.7327 26.6918 17.2823 26.6918 16.7266C26.6918 16.1709 26.2413 15.7205 25.6856 15.7205C25.13 15.7205 24.6795 16.1709 24.6795 16.7266C24.6795 17.2823 25.13 17.7327 25.6856 17.7327Z" fill="white"/>
<path d="M29.1641 15.7037C28.948 15.1458 28.6178 14.6391 28.1947 14.2161C27.7715 13.7931 27.2647 13.4631 26.7066 13.2472C26.0536 13.0021 25.3637 12.8695 24.6664 12.8552C23.7676 12.816 23.4829 12.8048 21.2037 12.8048C18.9245 12.8048 18.6324 12.8048 17.741 12.8552C17.0442 12.8688 16.3548 13.0014 15.7026 13.2472C15.1444 13.4628 14.6375 13.7927 14.2143 14.2158C13.7911 14.6388 13.461 15.1456 13.2452 15.7037C13 16.3567 12.8677 17.0467 12.8541 17.744C12.814 18.6419 12.8018 18.9265 12.8018 21.2067C12.8018 23.4859 12.8018 23.7761 12.8541 24.6693C12.8681 25.3675 12.9997 26.0563 13.2452 26.7105C13.4616 27.2685 13.792 27.7751 14.2153 28.1981C14.6386 28.621 15.1455 28.9511 15.7036 29.1671C16.3545 29.4221 17.0442 29.5641 17.7429 29.5871C18.6417 29.6263 18.9264 29.6384 21.2056 29.6384C23.4848 29.6384 23.7769 29.6384 24.6682 29.5871C25.3655 29.5729 26.0554 29.4407 26.7085 29.196C27.2664 28.9797 27.7731 28.6494 28.1962 28.2263C28.6193 27.8031 28.9496 27.2964 29.166 26.7385C29.4114 26.0852 29.543 25.3964 29.557 24.6983C29.5972 23.8004 29.6093 23.5157 29.6093 21.2356C29.6093 18.9555 29.6093 18.6661 29.557 17.7729C29.5462 17.0657 29.4132 16.3657 29.1641 15.7037ZM28.0273 24.6003C28.0213 25.1382 27.9231 25.671 27.737 26.1757C27.5969 26.5387 27.3823 26.8683 27.1071 27.1433C26.8319 27.4183 26.5022 27.6327 26.1392 27.7727C25.64 27.9579 25.1128 28.0561 24.5805 28.0629C23.6938 28.104 23.4437 28.1143 21.1701 28.1143C18.8946 28.1143 18.6622 28.1143 17.7588 28.0629C17.2267 28.0564 16.6997 27.9582 16.201 27.7727C15.8367 27.6336 15.5057 27.4196 15.2293 27.1445C14.9529 26.8694 14.7374 26.5394 14.5966 26.1757C14.4132 25.6765 14.315 25.1499 14.3064 24.618C14.2662 23.7313 14.2569 23.4812 14.2569 21.2076C14.2569 18.9331 14.2569 18.7007 14.3064 17.7963C14.3124 17.2587 14.4106 16.7261 14.5966 16.2217C14.8813 15.4853 15.4646 14.9057 16.201 14.6239C16.7 14.4392 17.2268 14.341 17.7588 14.3336C18.6464 14.2935 18.8956 14.2823 21.1701 14.2823C23.4446 14.2823 23.678 14.2823 24.5805 14.3336C25.1129 14.34 25.6402 14.4382 26.1392 14.6239C26.5022 14.7641 26.8318 14.9787 27.107 15.2539C27.3822 15.5291 27.5968 15.8587 27.737 16.2217C27.9205 16.721 28.0186 17.2476 28.0273 17.7795C28.0674 18.6671 28.0777 18.9163 28.0777 21.1908C28.0777 23.4644 28.0777 23.7089 28.0376 24.6012H28.0273V24.6003Z" fill="white"/>
<circle cx="21" cy="95" r="21" fill="white" fill-opacity="0.1"/>
<path d="M22.5039 103.597V95.9477H25.0845L25.4681 92.9526H22.5039V91.0449C22.5039 90.1806 22.7447 89.5889 23.9851 89.5889H25.5568V86.9186C24.7921 86.8367 24.0234 86.7971 23.2543 86.8001C20.9732 86.8001 19.4071 88.1926 19.4071 90.749V92.947H16.8432V95.9421H19.4127V103.597H22.5039Z" fill="white"/>
</svg>
